<?xml version="1.0" encoding="UTF-8" standalone="no"?>
<!DOCTYPE svg PUBLIC "-//W3C//DTD SVG 1.1//EN"
 "http://www.w3.org/Graphics/SVG/1.1/DTD/svg11.dtd">
<!-- Generated by graphviz version 15.1.1 (20260805.0921)
 -->
<!-- Title: include/pd/pd.h Pages: 1 -->
<svg width="200pt" height="84pt"
 viewBox="0.00 0.00 200.00 84.00" xmlns="http://www.w3.org/2000/svg" xmlns:xlink="http://www.w3.org/1999/xlink">
<g id="graph0" class="graph" transform="scale(1 1) rotate(0) translate(4 80)">
<title>include/pd/pd.h</title>
<!-- Node1 -->
<g id="Node000001" class="node">
<title>Node1</title>
<g id="a_Node000001"><a xlink:title="Proportional&#45;Derivative (PD) controller.">
<polygon fill="#999999" stroke="#666666" points="187,-76 105,-76 105,-56 187,-56 187,-76"/>
<text xml:space="preserve" text-anchor="middle" x="146" y="-62.5" font-family="Helvetica,sans-Serif" font-size="10.00">include/pd/pd.h</text>
</a>
</g>
</g>
<!-- Node2 -->
<g id="Node000002" class="node">
<title>Node2</title>
<g id="a_Node000002"><a xlink:href="../../d5/d47/utility_8h.html" target="_top" xlink:title="Utility functions for the Control System library.">
<polygon fill="white" stroke="#666666" points="82,-20 0,-20 0,0 82,0 82,-20"/>
<text xml:space="preserve" text-anchor="middle" x="41" y="-6.5" font-family="Helvetica,sans-Serif" font-size="10.00">../utility/utility.h</text>
</a>
</g>
</g>
<!-- Node1&#45;&gt;Node2 -->
<g id="edge1_Node000001_Node000002" class="edge">
<title>Node1&#45;&gt;Node2</title>
<g id="a_edge1_Node000001_Node000002"><a xlink:title=" ">
<path fill="none" stroke="#63b8ff" d="M127.71,-55.59C111.7,-47.36 88.17,-35.26 69.66,-25.74"/>
<polygon fill="#63b8ff" stroke="#63b8ff" points="71.27,-22.63 60.78,-21.17 68.07,-28.86 71.27,-22.63"/>
</a>
</g>
</g>
<!-- Node3 -->
<g id="Node000003" class="node">
<title>Node3</title>
<g id="a_Node000003"><a xlink:href="../../d4/dc4/pd_8tpp.html" target="_top" xlink:title=" ">
<polygon fill="white" stroke="#666666" points="191.5,-20 100.5,-20 100.5,0 191.5,0 191.5,-20"/>
<text xml:space="preserve" text-anchor="middle" x="146" y="-6.5" font-family="Helvetica,sans-Serif" font-size="10.00">../../src/pd/pd.tpp</text>
</a>
</g>
</g>
<!-- Node1&#45;&gt;Node3 -->
<g id="edge2_Node000001_Node000003" class="edge">
<title>Node1&#45;&gt;Node3</title>
<g id="a_edge2_Node000001_Node000003"><a xlink:title=" ">
<path fill="none" stroke="#63b8ff" d="M140.73,-55.59C139.42,-49.01 138.98,-39.96 139.41,-31.73"/>
<polygon fill="#63b8ff" stroke="#63b8ff" points="142.89,-32.14 140.58,-21.8 135.94,-31.33 142.89,-32.14"/>
</a>
</g>
</g>
<!-- Node3&#45;&gt;Node1 -->
<g id="edge3_Node000003_Node000001" class="edge">
<title>Node3&#45;&gt;Node1</title>
<g id="a_edge3_Node000003_Node000001"><a xlink:title=" ">
<path fill="none" stroke="#63b8ff" d="M151.25,-20.3C152.59,-26.93 153.03,-36.11 152.58,-44.43"/>
<polygon fill="#63b8ff" stroke="#63b8ff" points="149.13,-43.75 151.44,-54.09 156.08,-44.57 149.13,-43.75"/>
</a>
</g>
</g>
</g>
</svg>
