<?xml version="1.0" encoding="UTF-8" standalone="no"?>
<!DOCTYPE svg PUBLIC "-//W3C//DTD SVG 1.1//EN"
 "http://www.w3.org/Graphics/SVG/1.1/DTD/svg11.dtd">
<!-- Generated by graphviz version 15.1.1 (20260805.0921)
 -->
<!-- Title: include/pid/pid_lpf_1.h Pages: 1 -->
<svg width="266pt" height="96pt"
 viewBox="0.00 0.00 266.00 96.00" xmlns="http://www.w3.org/2000/svg" xmlns:xlink="http://www.w3.org/1999/xlink">
<g id="graph0" class="graph" transform="scale(1 1) rotate(0) translate(4 92)">
<title>include/pid/pid_lpf_1.h</title>
<!-- Node1 -->
<g id="Node000001" class="node">
<title>Node1</title>
<g id="a_Node000001"><a xlink:title="PID controller with first&#45;order low&#45;pass filtered derivative.">
<polygon fill="#999999" stroke="#666666" points="214,-88 101.25,-88 101.25,-68 214,-68 214,-88"/>
<text xml:space="preserve" text-anchor="middle" x="157.62" y="-74.5" font-family="Helvetica,sans-Serif" font-size="10.00">include/pid/pid_lpf_1.h</text>
</a>
</g>
</g>
<!-- Node2 -->
<g id="Node000002" class="node">
<title>Node2</title>
<g id="a_Node000002"><a xlink:title=" ">
<polygon fill="#e0e0e0" stroke="#999999" points="45.25,-26 0,-26 0,-6 45.25,-6 45.25,-26"/>
<text xml:space="preserve" text-anchor="middle" x="22.62" y="-12.5" font-family="Helvetica,sans-Serif" font-size="10.00">cstdint</text>
</a>
</g>
</g>
<!-- Node1&#45;&gt;Node2 -->
<g id="edge1_Node000001_Node000002" class="edge">
<title>Node1&#45;&gt;Node2</title>
<g id="a_edge1_Node000001_Node000002"><a xlink:title=" ">
<path fill="none" stroke="#63b8ff" d="M135.45,-67.51C114.54,-58.52 82.36,-44.56 54.62,-32 54.01,-31.72 53.4,-31.44 52.77,-31.16"/>
<polygon fill="#63b8ff" stroke="#63b8ff" points="54.48,-28.09 43.93,-27.08 51.55,-34.45 54.48,-28.09"/>
</a>
</g>
</g>
<!-- Node3 -->
<g id="Node000003" class="node">
<title>Node3</title>
<g id="a_Node000003"><a xlink:href="../../d5/d47/utility_8h.html" target="_top" xlink:title="Utility functions for the Control System library.">
<polygon fill="white" stroke="#666666" points="145.62,-26 63.62,-26 63.62,-6 145.62,-6 145.62,-26"/>
<text xml:space="preserve" text-anchor="middle" x="104.62" y="-12.5" font-family="Helvetica,sans-Serif" font-size="10.00">../utility/utility.h</text>
</a>
</g>
</g>
<!-- Node1&#45;&gt;Node3 -->
<g id="edge2_Node000001_Node000003" class="edge">
<title>Node1&#45;&gt;Node3</title>
<g id="a_edge2_Node000001_Node000003"><a xlink:title=" ">
<path fill="none" stroke="#63b8ff" d="M149.34,-67.62C141.52,-58.77 129.59,-45.26 120.02,-34.43"/>
<polygon fill="#63b8ff" stroke="#63b8ff" points="122.92,-32.42 113.68,-27.25 117.67,-37.06 122.92,-32.42"/>
</a>
</g>
</g>
<!-- Node4 -->
<g id="Node000004" class="node">
<title>Node4</title>
<g id="a_Node000004"><a xlink:href="../../da/d7f/pid__lpf__1_8tpp.html" target="_top" xlink:title=" ">
<polygon fill="white" stroke="#666666" points="258,-32 163.25,-32 163.25,0 258,0 258,-32"/>
<text xml:space="preserve" text-anchor="start" x="171.25" y="-18.5" font-family="Helvetica,sans-Serif" font-size="10.00">../../src/pid/pid_lpf</text>
<text xml:space="preserve" text-anchor="middle" x="210.62" y="-6.5" font-family="Helvetica,sans-Serif" font-size="10.00">_1.tpp</text>
</a>
</g>
</g>
<!-- Node1&#45;&gt;Node4 -->
<g id="edge3_Node000001_Node000004" class="edge">
<title>Node1&#45;&gt;Node4</title>
<g id="a_edge3_Node000001_Node000004"><a xlink:title=" ">
<path fill="none" stroke="#63b8ff" d="M160.84,-67.62C165.86,-60.28 174.66,-49.75 183.55,-40.19"/>
<polygon fill="#63b8ff" stroke="#63b8ff" points="185.83,-42.86 190.25,-33.23 180.79,-38.01 185.83,-42.86"/>
</a>
</g>
</g>
<!-- Node4&#45;&gt;Node1 -->
<g id="edge4_Node000004_Node000001" class="edge">
<title>Node4&#45;&gt;Node1</title>
<g id="a_edge4_Node000004_Node000001"><a xlink:title=" ">
<path fill="none" stroke="#63b8ff" d="M203.2,-32.14C196.79,-40.51 187.65,-50.95 179.14,-59.65"/>
<polygon fill="#63b8ff" stroke="#63b8ff" points="176.76,-57.08 172.05,-66.57 181.65,-62.09 176.76,-57.08"/>
</a>
</g>
</g>
</g>
</svg>
