<?xml version="1.0" encoding="UTF-8" standalone="no"?>
<!DOCTYPE svg PUBLIC "-//W3C//DTD SVG 1.1//EN"
 "http://www.w3.org/Graphics/SVG/1.1/DTD/svg11.dtd">
<!-- Generated by graphviz version 15.1.1 (20260805.0921)
 -->
<!-- Title: include/derivative/d_lpf_1.h Pages: 1 -->
<svg width="200pt" height="108pt"
 viewBox="0.00 0.00 200.00 108.00" xmlns="http://www.w3.org/2000/svg" xmlns:xlink="http://www.w3.org/1999/xlink">
<g id="graph0" class="graph" transform="scale(1 1) rotate(0) translate(4 104)">
<title>include/derivative/d_lpf_1.h</title>
<!-- Node1 -->
<g id="Node000001" class="node">
<title>Node1</title>
<g id="a_Node000001"><a xlink:title="Derivative controller with first&#45;order low&#45;pass filtering.">
<polygon fill="#999999" stroke="#666666" points="191.88,-100 100.12,-100 100.12,-68 191.88,-68 191.88,-100"/>
<text xml:space="preserve" text-anchor="start" x="108.12" y="-86.5" font-family="Helvetica,sans-Serif" font-size="10.00">include/derivative</text>
<text xml:space="preserve" text-anchor="middle" x="146" y="-74.5" font-family="Helvetica,sans-Serif" font-size="10.00">/d_lpf_1.h</text>
</a>
</g>
</g>
<!-- Node2 -->
<g id="Node000002" class="node">
<title>Node2</title>
<g id="a_Node000002"><a xlink:href="../../d5/d47/utility_8h.html" target="_top" xlink:title="Utility functions for the Control System library.">
<polygon fill="white" stroke="#666666" points="82,-26 0,-26 0,-6 82,-6 82,-26"/>
<text xml:space="preserve" text-anchor="middle" x="41" y="-12.5" font-family="Helvetica,sans-Serif" font-size="10.00">../utility/utility.h</text>
</a>
</g>
</g>
<!-- Node1&#45;&gt;Node2 -->
<g id="edge1_Node000001_Node000002" class="edge">
<title>Node1&#45;&gt;Node2</title>
<g id="a_edge1_Node000001_Node000002"><a xlink:title=" ">
<path fill="none" stroke="#63b8ff" d="M121.38,-67.53C104.62,-56.99 82.51,-43.09 65.72,-32.54"/>
<polygon fill="#63b8ff" stroke="#63b8ff" points="67.66,-29.62 57.33,-27.27 63.94,-35.55 67.66,-29.62"/>
</a>
</g>
</g>
<!-- Node3 -->
<g id="Node000003" class="node">
<title>Node3</title>
<g id="a_Node000003"><a xlink:href="../../dd/dd9/d__lpf__1_8tpp.html" target="_top" xlink:title=" ">
<polygon fill="white" stroke="#666666" points="192.25,-32 99.75,-32 99.75,0 192.25,0 192.25,-32"/>
<text xml:space="preserve" text-anchor="start" x="107.75" y="-18.5" font-family="Helvetica,sans-Serif" font-size="10.00">../../src/derivative</text>
<text xml:space="preserve" text-anchor="middle" x="146" y="-6.5" font-family="Helvetica,sans-Serif" font-size="10.00">/d_lpf_1.tpp</text>
</a>
</g>
</g>
<!-- Node1&#45;&gt;Node3 -->
<g id="edge2_Node000001_Node000003" class="edge">
<title>Node1&#45;&gt;Node3</title>
<g id="a_edge2_Node000001_Node000003"><a xlink:title=" ">
<path fill="none" stroke="#63b8ff" d="M140.2,-67.69C139.35,-60.53 139.07,-51.79 139.36,-43.59"/>
<polygon fill="#63b8ff" stroke="#63b8ff" points="142.85,-43.97 140.1,-33.73 135.87,-43.45 142.85,-43.97"/>
</a>
</g>
</g>
<!-- Node3&#45;&gt;Node1 -->
<g id="edge3_Node000003_Node000001" class="edge">
<title>Node3&#45;&gt;Node1</title>
<g id="a_edge3_Node000003_Node000001"><a xlink:title=" ">
<path fill="none" stroke="#63b8ff" d="M151.79,-32.22C152.65,-39.38 152.93,-48.12 152.64,-56.31"/>
<polygon fill="#63b8ff" stroke="#63b8ff" points="149.16,-55.95 151.91,-66.18 156.14,-56.47 149.16,-55.95"/>
</a>
</g>
</g>
</g>
</svg>
